 <svg version="1.0" xmlns="http://www.w3.org/2000/svg"  width="800px" height="400px" 
 viewBox="0 0 300.000000 300.000000"  preserveAspectRatio="xMidYMid meet">
   <g transform="translate(0.000000,300.000000) scale(0.100000,-0.100000)" fill="#000000" stroke="none"> <path d="M775 1780 c63 -9 107 -31 134 -67 l20 -28 1 50 c0 34 -3 45 -9 35 -8 -12 -17 -12 -64 3 -29 9 -71 16 -93 16 -37 -1 -37 -2 11 -9z"/> <path d="M1020 1758 c-77 -40 -97 -118 -44 -171 13 -13 66 -38 119 -56 69 -24 102 -41 120 -63 51 -61 22 -136 -63 -162 -32 -10 -39 -15 -23 -15 48 -2 108 37 130 83 25 51 25 55 5 106 -19 47 -53 70 -153 104 -84 28 -121 58 -121 96 0 59 65 98 145 86 52 -8 92 -38 111 -80 13 -30 13 -30 12 27 -1 31 -5 52 -8 46 -5 -7 -23 -6 -60 5 -73 22 -118 20 -170 -6z"/> <path d="M671 1748 c-1 -14 -4 -34 -7 -43 -8 -21 -55 -45 -91 -46 -27 -1 -27 -1 4 -9 77 -18 93 -58 95 -237 1 -120 2 -129 8 -68 4 39 8 104 9 145 2 104 21 141 81 156 l45 11 -44 6 c-51 6 -71 24 -87 75 -11 33 -12 34 -13 10z m26 -93 c1 -5 -2 -17 -7 -25 -8 -13 -11 -13 -26 2 -9 9 -13 21 -9 28 8 13 37 10 42 -5z"/> <path d="M1397 1680 c-74 -58 -36 -203 52 -199 l26 2 -25 4 c-54 10 -87 68 -74 132 13 62 75 92 116 54 16 -14 18 -14 18 -1 0 32 -76 37 -113 8z"/> <path d="M1559 1698 c0 -2 -1 -49 -2 -106 -1 -66 2 -102 8 -102 7 0 10 28 8 78 -4 100 1 122 30 122 44 0 62 -43 31 -74 -8 -9 -11 -16 -6 -16 16 0 42 36 42 58 0 26 -28 42 -74 42 -20 0 -36 -1 -37 -2z"/> <path d="M1717 1674 c-34 -34 -42 -73 -23 -117 40 -97 166 -63 166 45 0 30 -7 46 -29 69 -38 37 -79 38 -114 3z m103 -6 c25 -27 27 -103 4 -136 -20 -29 -74 -30 -100 -1 -24 27 -25 95 -1 132 22 34 67 37 97 5z"/> <path d="M1891 1678 c5 -9 9 -50 9 -92 0 -66 3 -77 22 -90 31 -22 84 -20 108 4 16 16 20 33 20 94 0 41 2 81 5 88 3 8 -1 14 -12 14 -16 0 -18 -9 -15 -89 2 -58 -1 -93 -8 -103 -14 -16 -67 -19 -89 -5 -18 12 -28 150 -12 178 9 18 8 21 -13 19 -19 -1 -22 -4 -15 -18z"/> <path d="M2092 1692 c2 -4 30 -52 63 -107 39 -64 61 -93 63 -81 2 9 -3 25 -11 34 -8 9 -33 50 -57 90 -23 39 -47 72 -52 72 -5 0 -8 -3 -6 -8z"/> <path d="M2209 1623 c5 -78 8 -73 13 25 2 30 -1 52 -7 52 -6 0 -8 -29 -6 -77z"/> <path d="M2265 1598 c0 -82 3 -104 15 -110 32 -14 62 -7 91 21 25 25 29 37 29 81 0 44 -4 56 -29 81 -22 22 -39 29 -68 29 l-38 0 0 -102z m94 68 c18 -19 23 -36 23 -76 0 -58 -28 -100 -69 -100 -23 0 -23 2 -23 100 0 98 0 100 23 100 13 0 34 -11 46 -24z"/> <path d="M1590 1595 c0 -12 86 -98 111 -111 16 -8 45 -13 66 -13 l38 2 -41 6 c-52 9 -84 29 -125 81 -29 35 -49 50 -49 35z"/> <path d="M1485 1537 c0 -27 5 -44 12 -44 6 0 13 19 15 44 2 33 0 43 -12 43 -11 0 -15 -11 -15 -43z"/> <path d="M860 1503 c17 -12 20 -25 20 -92 0 -77 -1 -79 -29 -90 -15 -7 -50 -16 -77 -20 l-49 -9 40 -1 c22 0 58 8 80 18 36 16 43 16 63 3 l22 -14 0 95 c0 85 2 97 20 110 19 13 15 15 -45 15 -60 0 -64 -2 -45 -15z"/> <path d="M1420 1435 c0 -7 8 -19 18 -24 16 -10 16 -10 -2 -11 -15 0 -17 -3 -9 -11 6 -6 16 -8 22 -5 16 10 13 36 -4 36 -18 0 -20 16 -2 23 7 3 5 6 -5 6 -10 1 -18 -6 -18 -14z"/> <path d="M1562 1420 c0 -19 2 -29 5 -22 2 6 11 12 18 12 7 0 16 -6 18 -12 3 -7 6 3 6 22 0 28 -2 32 -10 18 -5 -10 -14 -18 -19 -18 -5 0 -11 8 -13 18 -3 9 -5 1 -5 -18z"/> <path d="M1714 1422 c-11 -28 -10 -29 16 -28 25 1 26 3 18 29 -13 34 -21 34 -34 -1z"/> <path d="M2000 1421 c0 -16 6 -31 15 -35 8 -3 15 -1 15 4 0 6 -6 10 -12 10 -9 0 -8 4 2 10 10 6 11 10 3 10 -19 0 -16 18 5 23 13 4 11 5 -5 6 -19 1 -23 -4 -23 -28z"/> <path d="M2137 1423 c-5 -29 2 -48 10 -25 4 10 8 8 18 -5 11 -15 13 -13 11 17 -2 45 -31 54 -39 13z"/> <path d="M2280 1435 c0 -7 8 -19 18 -24 15 -9 14 -10 -8 -11 -19 0 -21 -3 -11 -9 8 -5 20 -7 28 -4 18 7 17 33 -2 33 -18 0 -20 16 -2 23 7 3 5 6 -5 6 -10 1 -18 -6 -18 -14z"/> </g> </svg> 