<?xml version="1.0" standalone="no"?>
<!DOCTYPE svg PUBLIC "-//W3C//DTD SVG 20010904//EN"
 "http://www.w3.org/TR/2001/REC-SVG-20010904/DTD/svg10.dtd">
<svg version="1.0" xmlns="http://www.w3.org/2000/svg"
 width="300.000000pt" height="106.000000pt" viewBox="0 0 300.000000 106.000000"
 preserveAspectRatio="xMidYMid meet">
<metadata>
Created by potrace 1.10, written by Peter Selinger 2001-2011
</metadata>
<g transform="translate(0.000000,106.000000) scale(0.100000,-0.100000)"
fill="#000000" stroke="none">
<path d="M480 790 c110 -14 171 -49 215 -124 7 -13 10 1 10 52 0 55 -2 66 -12
53 -10 -15 -17 -14 -80 3 -37 11 -97 21 -133 22 l-65 2 65 -8z"/>
<path d="M913 779 c-136 -18 -218 -139 -163 -237 27 -48 77 -77 210 -121 52
-17 110 -40 128 -51 68 -42 92 -132 52 -197 -25 -41 -59 -63 -123 -80 l-52
-13 54 5 c111 9 191 90 191 194 0 110 -58 166 -228 221 -119 38 -160 63 -179
107 -32 78 31 152 139 160 116 9 207 -37 228 -118 6 -21 12 -39 13 -39 1 0 2
36 2 79 0 64 -2 77 -13 68 -10 -8 -32 -6 -80 6 -94 22 -120 25 -179 16z"/>
<path d="M341 758 c-2 -47 -32 -108 -61 -123 -15 -8 -51 -17 -81 -21 l-54 -8
48 -7 c114 -17 128 -49 142 -329 l11 -215 8 204 c10 280 28 323 142 340 l49 7
-54 8 c-96 13 -123 37 -140 126 -6 31 -9 37 -10 18z m32 -197 l-30 -41 -24 35
c-13 19 -28 35 -33 35 -6 0 5 16 24 35 l34 35 30 -29 29 -29 -30 -41z"/>
<path d="M1399 647 c-99 -66 -89 -231 16 -278 43 -19 88 -18 100 2 3 4 -7 4
-24 -2 -43 -15 -93 9 -115 55 -22 46 -23 134 -2 175 34 64 106 82 151 36 21
-20 25 -21 25 -7 0 20 -49 42 -92 42 -14 0 -40 -10 -59 -23z"/>
<path d="M1635 664 c-19 -4 -20 -12 -17 -140 2 -93 -1 -140 -9 -150 -10 -12
-5 -14 27 -13 22 0 33 3 27 6 -10 3 -13 43 -13 149 l0 144 38 0 c44 0 72 -23
72 -61 0 -29 -8 -42 -35 -57 -16 -9 -17 -11 -4 -12 24 0 57 31 64 61 10 42
-22 71 -81 74 -27 2 -58 1 -69 -1z"/>
<path d="M1873 650 c-89 -54 -84 -208 8 -256 69 -35 158 8 179 88 25 89 -41
188 -125 188 -16 0 -44 -9 -62 -20z m116 -6 c29 -21 51 -72 51 -119 0 -99 -78
-163 -152 -124 -25 13 -58 84 -58 124 0 39 33 110 57 124 27 16 75 13 102 -5z"/>
<path d="M2665 664 c-19 -4 -20 -12 -17 -146 2 -108 0 -143 -10 -149 -9 -6 -4
-9 15 -9 l27 0 0 150 0 150 34 0 c50 0 91 -39 106 -100 21 -86 -8 -161 -73
-190 -35 -16 -37 -18 -12 -14 70 14 115 75 115 157 0 108 -81 174 -185 151z"/>
<path d="M2111 538 c3 -68 9 -130 13 -139 24 -54 169 -58 198 -6 8 13 15 72
18 145 5 117 4 122 -15 122 -19 0 -20 -6 -17 -128 3 -119 2 -129 -18 -147 -31
-28 -107 -25 -132 5 -17 21 -19 38 -16 147 3 117 2 123 -17 123 -19 0 -20 -5
-14 -122z"/>
<path d="M2406 649 c4 -6 44 -75 90 -152 59 -98 84 -133 84 -115 0 31 -148
278 -167 278 -8 0 -11 -5 -7 -11z"/>
<path d="M2573 555 c0 -38 2 -53 4 -32 2 20 2 52 0 70 -2 17 -4 1 -4 -38z"/>
<path d="M2404 490 c0 -52 1 -74 3 -47 2 26 2 68 0 95 -2 26 -3 4 -3 -48z"/>
<path d="M1670 522 c0 -10 66 -88 100 -119 44 -40 103 -63 156 -62 l49 2 -50
6 c-27 3 -67 16 -87 29 -38 24 -138 127 -138 143 0 5 -7 9 -15 9 -8 0 -15 -4
-15 -8z"/>
<path d="M1518 488 c7 -7 12 -35 12 -64 0 -37 4 -54 15 -58 13 -5 15 2 9 43
-4 29 -2 56 5 70 11 19 9 21 -21 21 -25 0 -29 -3 -20 -12z"/>
<path d="M595 392 c38 -19 45 -43 45 -152 l0 -101 -47 -21 c-32 -14 -69 -22
-110 -22 -35 -1 -63 -5 -63 -10 0 -16 137 1 181 22 l43 21 33 -20 33 -21 0
134 c0 73 4 138 8 144 4 6 19 17 34 25 25 13 18 14 -77 14 -90 0 -101 -2 -80
-13z"/>
<path d="M1427 303 c-14 -14 -6 -34 18 -45 14 -6 25 -16 25 -21 0 -5 -11 -7
-25 -5 -28 6 -34 -6 -9 -16 19 -7 44 10 44 30 0 8 -11 16 -25 20 -31 8 -27 30
4 27 13 -2 20 1 16 7 -7 11 -38 13 -48 3z"/>
<path d="M1620 265 c0 -25 5 -45 10 -45 6 0 10 9 10 20 0 29 37 27 43 -2 2
-13 4 0 4 27 0 28 -2 40 -4 28 -6 -30 -43 -32 -43 -3 0 11 -4 20 -10 20 -5 0
-10 -20 -10 -45z"/>
<path d="M1861 288 c-5 -13 -12 -34 -16 -48 -6 -20 -5 -23 6 -12 7 6 21 12 30
12 10 0 20 -6 22 -12 4 -8 6 -9 6 -2 1 15 -28 84 -34 84 -3 0 -9 -10 -14 -22z"/>
<path d="M2062 265 c0 -31 2 -43 7 -32 6 17 8 17 20 3 7 -9 18 -16 24 -16 5 0
3 8 -6 18 -10 10 -17 22 -17 27 0 5 7 17 17 27 9 10 12 18 7 18 -5 0 -16 -10
-23 -22 l-15 -23 -7 25 c-5 18 -7 12 -7 -25z"/>
<path d="M2268 265 c-3 -44 -3 -45 27 -44 23 1 25 3 8 6 -27 5 -31 30 -5 36
16 4 16 5 0 6 -26 2 -22 29 5 34 20 4 19 4 -4 6 -25 1 -27 -2 -31 -44z"/>
<path d="M2460 266 c0 -25 5 -46 10 -46 6 0 10 7 10 15 0 20 10 19 25 -1 10
-14 12 -10 11 27 -1 40 -3 44 -28 47 -27 3 -28 2 -28 -42z"/>
<path d="M2677 303 c-14 -13 -6 -41 13 -46 32 -8 25 -30 -7 -23 -26 6 -27 5
-9 -8 14 -11 24 -13 38 -5 23 13 19 31 -10 44 -25 11 -23 32 3 27 10 -2 14 1
10 7 -7 12 -28 14 -38 4z"/>
</g>
</svg>
